<?xml version="1.0" encoding="UTF-8" standalone="no"?>
<!DOCTYPE svg PUBLIC "-//W3C//DTD SVG 1.1//EN"
 "http://www.w3.org/Graphics/SVG/1.1/DTD/svg11.dtd">
<!-- Generated by graphviz version 2.38.0 (20140413.2041)
 -->
<!-- Title: G Pages: 1 -->
<svg width="163pt" height="276pt"
 viewBox="0.00 0.00 163.00 276.00" xmlns="http://www.w3.org/2000/svg" xmlns:xlink="http://www.w3.org/1999/xlink">
<g id="graph0" class="graph" transform="scale(1 1) rotate(0) translate(4 272)">
<title>G</title>
<polygon fill="white" stroke="none" points="-4,4 -4,-272 159,-272 159,4 -4,4"/>
<g id="clust1" class="cluster"><title>cluster_Global</title>
<path fill="none" stroke="gray" d="M20,-8C20,-8 135,-8 135,-8 141,-8 147,-14 147,-20 147,-20 147,-248 147,-248 147,-254 141,-260 135,-260 135,-260 20,-260 20,-260 14,-260 8,-254 8,-248 8,-248 8,-20 8,-20 8,-14 14,-8 20,-8"/>
<text text-anchor="middle" x="77.5" y="-247.2" font-family="Times,serif" font-size="11.00" fill="gray">Global</text>
</g>
<g id="clust2" class="cluster"><title>cluster_\unikent</title>
<path fill="none" stroke="gray" d="M28,-16C28,-16 127,-16 127,-16 133,-16 139,-22 139,-28 139,-28 139,-220 139,-220 139,-226 133,-232 127,-232 127,-232 28,-232 28,-232 22,-232 16,-226 16,-220 16,-220 16,-28 16,-28 16,-22 22,-16 28,-16"/>
<text text-anchor="middle" x="77.5" y="-219.2" font-family="Times,serif" font-size="11.00" fill="gray">unikent</text>
</g>
<g id="clust3" class="cluster"><title>cluster_\unikent\KAR</title>
<path fill="none" stroke="gray" d="M36,-24C36,-24 119,-24 119,-24 125,-24 131,-30 131,-36 131,-36 131,-192 131,-192 131,-198 125,-204 119,-204 119,-204 36,-204 36,-204 30,-204 24,-198 24,-192 24,-192 24,-36 24,-36 24,-30 30,-24 36,-24"/>
<text text-anchor="middle" x="77.5" y="-191.2" font-family="Times,serif" font-size="11.00" fill="gray">KAR</text>
</g>
<!-- \\unikent\\KAR\\Person -->
<g id="node1" class="node"><title>\\unikent\\KAR\\Person</title>
<polygon fill="none" stroke="black" points="106,-176 49,-176 49,-140 106,-140 106,-176"/>
<text text-anchor="middle" x="77.5" y="-155.2" font-family="Courier,monospace" font-size="11.00">Person</text>
</g>
<!-- \\unikent\\KAR\\Publication -->
<g id="node2" class="node"><title>\\unikent\\KAR\\Publication</title>
<polygon fill="none" stroke="black" points="123,-122 32,-122 32,-86 123,-86 123,-122"/>
<text text-anchor="middle" x="77.5" y="-101.2" font-family="Courier,monospace" font-size="11.00">Publication</text>
</g>
<!-- \\unikent\\KAR\\API -->
<g id="node3" class="node"><title>\\unikent\\KAR\\API</title>
<polygon fill="none" stroke="black" points="104.5,-68 50.5,-68 50.5,-32 104.5,-32 104.5,-68"/>
<text text-anchor="middle" x="77.5" y="-47.2" font-family="Courier,monospace" font-size="11.00">API</text>
</g>
</g>
</svg>
