<?xml version="1.0" encoding="UTF-8" standalone="no"?>
<!DOCTYPE svg PUBLIC "-//W3C//DTD SVG 1.1//EN"
 "http://www.w3.org/Graphics/SVG/1.1/DTD/svg11.dtd">
<!-- Generated by graphviz version 2.38.0 (20140413.2041)
 -->
<!-- Title: G Pages: 1 -->
<svg width="163pt" height="330pt"
 viewBox="0.00 0.00 163.00 330.00" xmlns="http://www.w3.org/2000/svg" xmlns:xlink="http://www.w3.org/1999/xlink">
<g id="graph0" class="graph" transform="scale(1 1) rotate(0) translate(4 326)">
<title>G</title>
<polygon fill="white" stroke="none" points="-4,4 -4,-326 159,-326 159,4 -4,4"/>
<g id="clust1" class="cluster"><title>cluster_Global</title>
<path fill="none" stroke="gray" d="M20,-8C20,-8 135,-8 135,-8 141,-8 147,-14 147,-20 147,-20 147,-302 147,-302 147,-308 141,-314 135,-314 135,-314 20,-314 20,-314 14,-314 8,-308 8,-302 8,-302 8,-20 8,-20 8,-14 14,-8 20,-8"/>
<text text-anchor="middle" x="77.5" y="-301.2" font-family="Times,serif" font-size="11.00" fill="gray">Global</text>
</g>
<g id="clust2" class="cluster"><title>cluster_\unikent</title>
<path fill="none" stroke="gray" d="M28,-16C28,-16 127,-16 127,-16 133,-16 139,-22 139,-28 139,-28 139,-274 139,-274 139,-280 133,-286 127,-286 127,-286 28,-286 28,-286 22,-286 16,-280 16,-274 16,-274 16,-28 16,-28 16,-22 22,-16 28,-16"/>
<text text-anchor="middle" x="77.5" y="-273.2" font-family="Times,serif" font-size="11.00" fill="gray">unikent</text>
</g>
<g id="clust3" class="cluster"><title>cluster_\unikent\KAR</title>
<path fill="none" stroke="gray" d="M36,-24C36,-24 119,-24 119,-24 125,-24 131,-30 131,-36 131,-36 131,-246 131,-246 131,-252 125,-258 119,-258 119,-258 36,-258 36,-258 30,-258 24,-252 24,-246 24,-246 24,-36 24,-36 24,-30 30,-24 36,-24"/>
<text text-anchor="middle" x="77.5" y="-245.2" font-family="Times,serif" font-size="11.00" fill="gray">KAR</text>
</g>
<!-- \\unikent\\KAR\\Person -->
<g id="node1" class="node"><title>\\unikent\\KAR\\Person</title>
<polygon fill="none" stroke="black" points="106,-230 49,-230 49,-194 106,-194 106,-230"/>
<text text-anchor="middle" x="77.5" y="-209.2" font-family="Courier,monospace" font-size="11.00">Person</text>
</g>
<!-- \\unikent\\KAR\\Publication -->
<g id="node2" class="node"><title>\\unikent\\KAR\\Publication</title>
<polygon fill="none" stroke="black" points="123,-176 32,-176 32,-140 123,-140 123,-176"/>
<text text-anchor="middle" x="77.5" y="-155.2" font-family="Courier,monospace" font-size="11.00">Publication</text>
</g>
<!-- \\unikent\\KAR\\API -->
<g id="node3" class="node"><title>\\unikent\\KAR\\API</title>
<polygon fill="none" stroke="black" points="104.5,-122 50.5,-122 50.5,-86 104.5,-86 104.5,-122"/>
<text text-anchor="middle" x="77.5" y="-101.2" font-family="Courier,monospace" font-size="11.00">API</text>
</g>
<!-- \\unikent\\KAR\\Division -->
<g id="node4" class="node"><title>\\unikent\\KAR\\Division</title>
<polygon fill="none" stroke="black" points="113,-68 42,-68 42,-32 113,-32 113,-68"/>
<text text-anchor="middle" x="77.5" y="-47.2" font-family="Courier,monospace" font-size="11.00">Division</text>
</g>
</g>
</svg>
